# xmcd CD database file
#
# Track frame offsets:
#	150
#	9792
#	20632
#	33212
#	44385
#	58785
#	72170
#	85202
#	116087
#	132270
#	145017
#	159147
#	169857
#	181537
#	194860
#	207412
#
# Disc length: 2945 seconds
#
# Revision: 4
# Processed by: cddbd v1.5.2PL0 Copyright (c) Steve Scherf et al.
# Submitted via: CDex 1.70beta2
#
DISCID=d50b7f10
DTITLE=John Lee Hooker - Rock House Boogie
DYEAR=1999
DGENRE=Blues
TTITLE0=Onions
TTITLE1=Send Me The Pillow That You Dream On
TTITLE2=I'm So Excited
TTITLE3=Shake, Holler And Run
TTITLE4=Cool Little CAr
TTITLE5=Ride Till I Die
TTITLE6=Rock House Boogie
TTITLE7=Let's Go Out Tonight
TTITLE8=Peace Lovin' Man
TTITLE9=Hobo Blues
TTITLE10=Half A Stranger
TTITLE11=Maudie
TTITLE12=I Love You Honey
TTITLE13=Baby Lee
TTITLE14=I'm In The Mood
TTITLE15=Time Is Marching
EXTD=YEAR: 1999
EXTT0=
EXTT1=
EXTT2=
EXTT3=
EXTT4=
EXTT5=
EXTT6=
EXTT7=
EXTT8=
EXTT9=
EXTT10=
EXTT11=
EXTT12=
EXTT13=
EXTT14=
EXTT15=
PLAYORDER=
